# xmcd CD database file
#
# Track frame offsets:
#	150
#	27725
#	41302
#	55922
#	68982
#	81840
#	97300
#	115320
#	124725
#	145300
#	164032
#	175820
#	196295
#	211157
#	226405
#	239002
#	260057
#	280642
#	296405
#	323100
#
# Disc length: 4391 seconds
#
# Revision: 2
# Processed by: cddbd v1.5.2PL0 Copyright (c) Steve Scherf et al.
# Submitted via: jetAudio 7
#
DISCID=36112514
DTITLE=The Gaithers - Precious Memories
DYEAR=1994
DGENRE=Gospel
TTITLE0=Precious Memories
TTITLE1=I'm His and He's Mine
TTITLE2=Just a Little While
TTITLE3=I'll Meet You in the Morning
TTITLE4=Goodbye World, Goodbye
TTITLE5=Oh How I Love Jesus
TTITLE6=Amazing Grace
TTITLE7=Heaven's Jubilee
TTITLE8=One Day at a Time
TTITLE9=Thinkin' About Home
TTITLE10=Going Home
TTITLE11=Is Not this the Land of Beulah?
TTITLE12=God Walks The Dark Hills
TTITLE13=Canaanland Is Just In Sight
TTITLE14=He Leadeth Me
TTITLE15=Highway to Heaven
TTITLE16=Sanctuary
TTITLE17=Had It Not Been
TTITLE18=Thank You
TTITLE19=Precious Memories (Reprise)
EXTD=YEAR: 1994 ID3G: 38
EXTT0=
EXTT1=
EXTT2=
EXTT3=
EXTT4=
EXTT5=
EXTT6=
EXTT7=
EXTT8=
EXTT9=
EXTT10=
EXTT11=
EXTT12=
EXTT13=
EXTT14=
EXTT15=
EXTT16=
EXTT17=
EXTT18=
EXTT19=
PLAYORDER=
